<svg id="visual" viewBox="0 0 900 600" width="900" height="600" xmlns="http://www.w3.org/2000/svg" xmlns:xlink="http://www.w3.org/1999/xlink" version="1.1"><rect x="0" y="0" width="900" height="600" fill="#4394a9"></rect><path d="M0 124L56 179L113 112L169 156L225 189L281 120L338 144L394 181L450 177L506 190L563 144L619 185L675 130L731 151L788 136L844 125L900 190L900 601L844 601L788 601L731 601L675 601L619 601L563 601L506 601L450 601L394 601L338 601L281 601L225 601L169 601L113 601L56 601L0 601Z" fill="#4394a9"></path><path d="M0 221L56 220L113 170L169 169L225 147L281 214L338 151L394 184L450 162L506 177L563 178L619 183L675 158L731 148L788 157L844 173L900 215L900 601L844 601L788 601L731 601L675 601L619 601L563 601L506 601L450 601L394 601L338 601L281 601L225 601L169 601L113 601L56 601L0 601Z" fill="#4499a3"></path><path d="M0 190L56 244L113 243L169 228L225 184L281 235L338 241L394 194L450 252L506 230L563 231L619 183L675 213L731 255L788 251L844 245L900 235L900 601L844 601L788 601L731 601L675 601L619 601L563 601L506 601L450 601L394 601L338 601L281 601L225 601L169 601L113 601L56 601L0 601Z" fill="#4c9e9c"></path><path d="M0 265L56 229L113 280L169 258L225 261L281 247L338 250L394 229L450 272L506 256L563 274L619 293L675 279L731 258L788 252L844 232L900 238L900 601L844 601L788 601L731 601L675 601L619 601L563 601L506 601L450 601L394 601L338 601L281 601L225 601L169 601L113 601L56 601L0 601Z" fill="#59a293"></path><path d="M0 272L56 270L113 316L169 317L225 264L281 296L338 273L394 305L450 321L506 327L563 283L619 292L675 315L731 308L788 291L844 280L900 323L900 601L844 601L788 601L731 601L675 601L619 601L563 601L506 601L450 601L394 601L338 601L281 601L225 601L169 601L113 601L56 601L0 601Z" fill="#6aa58a"></path><path d="M0 320L56 334L113 346L169 306L225 338L281 357L338 342L394 324L450 312L506 312L563 317L619 305L675 329L731 319L788 319L844 314L900 355L900 601L844 601L788 601L731 601L675 601L619 601L563 601L506 601L450 601L394 601L338 601L281 601L225 601L169 601L113 601L56 601L0 601Z" fill="#7ba782"></path><path d="M0 378L56 387L113 349L169 349L225 392L281 351L338 368L394 379L450 347L506 373L563 353L619 384L675 363L731 352L788 391L844 367L900 392L900 601L844 601L788 601L731 601L675 601L619 601L563 601L506 601L450 601L394 601L338 601L281 601L225 601L169 601L113 601L56 601L0 601Z" fill="#8da97c"></path><path d="M0 381L56 391L113 386L169 402L225 384L281 395L338 406L394 408L450 409L506 424L563 412L619 389L675 383L731 422L788 415L844 395L900 383L900 601L844 601L788 601L731 601L675 601L619 601L563 601L506 601L450 601L394 601L338 601L281 601L225 601L169 601L113 601L56 601L0 601Z" fill="#9faa79"></path><path d="M0 452L56 464L113 428L169 422L225 429L281 458L338 445L394 457L450 422L506 425L563 444L619 425L675 436L731 461L788 444L844 449L900 448L900 601L844 601L788 601L731 601L675 601L619 601L563 601L506 601L450 601L394 601L338 601L281 601L225 601L169 601L113 601L56 601L0 601Z" fill="#b1aa78"></path><path d="M0 462L56 476L113 474L169 473L225 462L281 470L338 485L394 482L450 496L506 468L563 469L619 474L675 488L731 473L788 487L844 477L900 487L900 601L844 601L788 601L731 601L675 601L619 601L563 601L506 601L450 601L394 601L338 601L281 601L225 601L169 601L113 601L56 601L0 601Z" fill="#c1aa7b"></path><path d="M0 532L56 517L113 530L169 531L225 514L281 500L338 502L394 521L450 504L506 522L563 513L619 511L675 516L731 532L788 517L844 511L900 505L900 601L844 601L788 601L731 601L675 601L619 601L563 601L506 601L450 601L394 601L338 601L281 601L225 601L169 601L113 601L56 601L0 601Z" fill="#d1a982"></path><path d="M0 545L56 550L113 558L169 540L225 547L281 559L338 543L394 544L450 547L506 558L563 555L619 542L675 548L731 566L788 552L844 564L900 550L900 601L844 601L788 601L731 601L675 601L619 601L563 601L506 601L450 601L394 601L338 601L281 601L225 601L169 601L113 601L56 601L0 601Z" fill="#dea98c"></path></svg>